<svg width="26" height="25" viewBox="0 0 26 25" fill="none" xmlns="http://www.w3.org/2000/svg">
<path d="M17.5637 8.14357C19.4877 8.14357 21.3329 8.90577 22.6934 10.2625C24.0539 11.6192 24.8182 13.4593 24.8182 15.378V23.8182H19.9819V15.378C19.9819 14.7385 19.7271 14.1251 19.2736 13.6728C18.8201 13.2206 18.205 12.9665 17.5637 12.9665C16.9223 12.9665 16.3073 13.2206 15.8538 13.6728C15.4003 14.1251 15.1455 14.7385 15.1455 15.378V23.8182H10.3091V15.378C10.3091 13.4593 11.0735 11.6192 12.4339 10.2625C13.7944 8.90577 15.6397 8.14357 17.5637 8.14357Z" stroke="#D9D9D9" stroke-linecap="round" stroke-linejoin="round"/>
<path d="M5.47278 9.34931H0.636414V23.8182H5.47278V9.34931Z" stroke="#D9D9D9" stroke-linecap="round" stroke-linejoin="round"/>
<path d="M3.0546 5.73208C4.39012 5.73208 5.47278 4.65243 5.47278 3.3206C5.47278 1.98878 4.39012 0.909119 3.0546 0.909119C1.71907 0.909119 0.636414 1.98878 0.636414 3.3206C0.636414 4.65243 1.71907 5.73208 3.0546 5.73208Z" stroke="#D9D9D9" stroke-linecap="round" stroke-linejoin="round"/>
</svg>
